<?xml version="1.0" encoding="UTF-8"?>
<svg id="Layer_1" data-name="Layer 1" xmlns="http://www.w3.org/2000/svg" version="1.1" viewBox="0 0 100 200">
  <defs>
    <style>
      .cls-1 {
        fill: #000;
        stroke-width: 0px;
      }
    </style>
  </defs>
  <path class="cls-1" d="M85,150H15c-8.28,0-15-6.72-15-15v60c0,2.76,2.24,5,5,5h90c2.76,0,5-2.24,5-5v-60c0,8.28-6.72,15-15,15Z"/>
  <path class="cls-1" d="M95,0H5C2.24,0,0,2.24,0,5v60c0-8.28,6.72-15,15-15h70c8.28,0,15,6.72,15,15V5c0-2.76-2.24-5-5-5Z"/>
</svg>