<?xml version="1.0" encoding="UTF-8"?>
<svg id="Layer_1" data-name="Layer 1" xmlns="http://www.w3.org/2000/svg" version="1.1" viewBox="0 0 60 65.5">
  <defs>
    <style>
      .cls-1 {
        fill: #000;
      }

      .cls-1, .cls-2 {
        stroke-width: 0px;
      }

      .cls-2 {
        fill: #fff;
      }
    </style>
  </defs>
  <path class="cls-2" d="M8.56,28.4L49.43,5.23c3.33-1.89,7.47.52,7.47,4.35v46.34c0,3.83-4.13,6.24-7.47,4.35L8.56,37.1c-3.38-1.92-3.38-6.78,0-8.7Z"/>
  <path class="cls-1" d="M50.17,65.47c-1.66,0-3.33-.43-4.85-1.29L4.98,41.3C1.86,39.53,0,36.33,0,32.75s1.86-6.78,4.98-8.55L45.33,1.33c3.08-1.74,6.74-1.72,9.79.06,3.06,1.78,4.88,4.95,4.88,8.49v45.75c0,3.54-1.82,6.71-4.88,8.49-1.55.9-3.25,1.35-4.95,1.35ZM50.17,9.35c-.12,0-.2.05-.25.08L9.57,32.3c-.08.04-.26.15-.26.45s.18.41.26.45l40.34,22.88c.08.04.26.14.52,0,.26-.15.26-.36.26-.45V9.87c0-.09,0-.3-.26-.45-.1-.06-.19-.08-.27-.08Z"/>
</svg>